<mxfile host="app.diagrams.net" modified="2024-04-20T17:01:19.770Z" agent="Mozilla/5.0 (Macintosh; Intel Mac OS X 10_15_7) AppleWebKit/537.36 (KHTML, like Gecko) Chrome/124.0.0.0 Safari/537.36" version="24.2.7" etag="0DS2IsxOIRs_SXQoaCmZ" type="github">
  <diagram name="Page-1" id="XZsIJU2wIk4EuzrLZHTW">
    <mxGraphModel>
      <root>
        <mxCell id="0" />
        <mxCell id="1" parent="0" />
      </root>
    </mxGraphModel>
  </diagram>
</mxfile>
